<svg width="70" height="70" viewBox="0 0 70 70" fill="none" xmlns="http://www.w3.org/2000/svg">
<rect x="0.5" y="0.5" width="69" height="69" rx="15.5" stroke="#E4E4E7"/>
<path d="M48.8948 46.9071C33.2242 54.1438 23.4988 48.0891 17.2733 44.4115C16.8881 44.1798 16.2334 44.4657 16.8014 45.0989C18.8755 47.5391 25.6725 53.4208 34.5446 53.4208C43.4228 53.4208 48.7045 48.7201 49.3652 47.9001C50.0215 47.087 49.5579 46.6385 48.8946 46.9071H48.8948ZM53.2958 44.5487C52.875 44.0169 50.737 43.9178 49.3914 44.0782C48.0438 44.234 46.021 45.0332 46.1968 45.513C46.2871 45.6928 46.4713 45.6121 47.3971 45.5314C48.3254 45.4415 50.9259 45.123 51.4678 45.8104C52.0122 46.5025 50.6384 49.7996 50.3875 50.3313C50.145 50.8631 50.4801 51.0002 50.9355 50.6461C51.3846 50.292 52.1976 49.3752 52.7432 48.0778C53.2851 46.7733 53.6156 44.9535 53.2957 44.5487H53.2958Z" fill="#FF9900"/>
<path fill-rule="evenodd" clip-rule="evenodd" d="M38.3557 32.14C38.3557 34.0388 38.4052 35.6224 37.4161 37.3086C36.6178 38.6798 35.3533 39.5229 33.9404 39.5229C32.0118 39.5229 30.8885 38.097 30.8885 35.9926C30.8885 31.8383 34.7244 31.0843 38.3557 31.0843V32.14ZM43.4209 44.0199C43.0888 44.3078 42.6084 44.3284 42.2341 44.1364C40.5669 42.7929 40.2701 42.1691 39.3518 40.8871C36.5967 43.6155 34.6469 44.4312 31.0723 44.4312C26.8477 44.4312 23.5557 41.9016 23.5557 36.8357C23.5557 32.8804 25.767 30.1863 28.9104 28.8702C31.6374 27.7047 35.4452 27.499 38.3557 27.177V26.5462C38.3557 25.3877 38.4475 24.0167 37.7482 23.0159C37.1335 22.1178 35.9608 21.7476 34.9293 21.7476C33.015 21.7476 31.3053 22.7005 30.8885 24.6747C30.8037 25.1136 30.4717 25.5455 30.0197 25.566L25.1451 25.0588C24.7355 24.9695 24.2834 24.6474 24.3964 24.0372C25.5196 18.3065 30.8531 16.5789 35.6286 16.5789C38.073 16.5789 41.266 17.2096 43.1947 19.0057C45.639 21.2198 45.4058 24.1743 45.4058 27.3894V34.9848C45.4058 37.2676 46.3808 38.2684 47.2991 39.5024C47.624 39.9411 47.6947 40.4691 47.2849 40.7979C46.2606 41.6274 44.4379 43.1699 43.4349 44.0337L43.4207 44.0199" fill="#050F21"/>
<path d="M48.8948 46.9071C33.2242 54.1438 23.4988 48.0891 17.2733 44.4115C16.8881 44.1798 16.2334 44.4657 16.8014 45.0989C18.8755 47.5391 25.6725 53.4208 34.5446 53.4208C43.4228 53.4208 48.7045 48.7201 49.3652 47.9001C50.0215 47.087 49.5579 46.6385 48.8946 46.9071H48.8948ZM53.2958 44.5487C52.875 44.0169 50.737 43.9178 49.3914 44.0782C48.0438 44.234 46.021 45.0332 46.1968 45.513C46.2871 45.6928 46.4713 45.6121 47.3971 45.5314C48.3254 45.4415 50.9259 45.123 51.4678 45.8104C52.0122 46.5025 50.6384 49.7996 50.3875 50.3313C50.145 50.8631 50.4801 51.0002 50.9355 50.6461C51.3846 50.292 52.1976 49.3752 52.7432 48.0778C53.2851 46.7733 53.6156 44.9535 53.2957 44.5487H53.2958Z" fill="#FF9900"/>
<path fill-rule="evenodd" clip-rule="evenodd" d="M38.3557 32.14C38.3557 34.0388 38.4052 35.6224 37.4161 37.3086C36.6178 38.6798 35.3533 39.5229 33.9404 39.5229C32.0118 39.5229 30.8885 38.097 30.8885 35.9926C30.8885 31.8383 34.7244 31.0843 38.3557 31.0843V32.14ZM43.4209 44.0199C43.0888 44.3078 42.6084 44.3284 42.2341 44.1364C40.5669 42.7929 40.2701 42.1691 39.3518 40.8871C36.5967 43.6155 34.6469 44.4312 31.0723 44.4312C26.8477 44.4312 23.5557 41.9016 23.5557 36.8357C23.5557 32.8804 25.767 30.1863 28.9104 28.8702C31.6374 27.7047 35.4452 27.499 38.3557 27.177V26.5462C38.3557 25.3877 38.4475 24.0167 37.7482 23.0159C37.1335 22.1178 35.9608 21.7476 34.9293 21.7476C33.015 21.7476 31.3053 22.7005 30.8885 24.6747C30.8037 25.1136 30.4717 25.5455 30.0197 25.566L25.1451 25.0588C24.7355 24.9695 24.2834 24.6474 24.3964 24.0372C25.5196 18.3065 30.8531 16.5789 35.6286 16.5789C38.073 16.5789 41.266 17.2096 43.1947 19.0057C45.639 21.2198 45.4058 24.1743 45.4058 27.3894V34.9848C45.4058 37.2676 46.3808 38.2684 47.2991 39.5024C47.624 39.9411 47.6947 40.4691 47.2849 40.7979C46.2606 41.6274 44.4379 43.1699 43.4349 44.0337L43.4207 44.0199" fill="#050F21"/>
</svg>
