<svg width="76" height="76" viewBox="0 0 76 76" fill="none" xmlns="http://www.w3.org/2000/svg">
<rect x="0.5" y="0.5" width="75" height="75" rx="15.5" fill="white" stroke="#E4E4E7"/>
<path fill-rule="evenodd" clip-rule="evenodd" d="M20.7118 18.6059C20.2606 19.0907 20 19.8315 20 20.8011V55.1912C20 56.1608 20.2606 56.9016 20.7273 57.367L20.8479 57.4718L40.1709 38.2037V37.7732L20.8323 18.5012L20.7118 18.6059Z" fill="url(#paint0_linear_1_357)"/>
<path fill-rule="evenodd" clip-rule="evenodd" d="M46.6006 44.6458L40.1558 38.2192V37.7694L46.6006 31.3428L46.7406 31.4281L54.3639 35.7487C56.5459 36.9743 56.5459 38.9988 54.3639 40.2399L46.7406 44.5605L46.6006 44.6458Z" fill="url(#paint1_linear_1_357)"/>
<path fill-rule="evenodd" clip-rule="evenodd" d="M46.7407 44.5603L40.1558 37.9941L20.7124 57.3825C21.4242 58.1426 22.6182 58.228 23.9523 57.4872L46.7407 44.5603Z" fill="url(#paint2_linear_1_357)"/>
<path fill-rule="evenodd" clip-rule="evenodd" d="M46.7407 31.4279L23.9523 18.5205C22.6182 17.7603 21.4203 17.865 20.7124 18.6252L40.1558 37.9941L46.7407 31.4279Z" fill="url(#paint3_linear_1_357)"/>
<path opacity="0.2" fill-rule="evenodd" clip-rule="evenodd" d="M46.5998 44.4207L23.967 57.2429C22.7029 57.9682 21.575 57.9178 20.8476 57.2584L20.7271 57.3787L20.8476 57.4834C21.575 58.1388 22.7029 58.1931 23.967 57.4679L46.7554 44.5603L46.5998 44.4207Z" fill="#050F21"/>
<path opacity="0.12" fill-rule="evenodd" clip-rule="evenodd" d="M54.3634 40.0148L46.5806 44.4207L46.7206 44.5603L54.3439 40.2398C55.4369 39.6192 55.9736 38.8047 55.9736 37.9941C55.9075 38.7388 55.3513 39.4447 54.3634 40.0148Z" fill="#050F21"/>
<defs>
<linearGradient id="paint0_linear_1_357" x1="38.4376" y1="20.4301" x2="7.49729" y2="28.6977" gradientUnits="userSpaceOnUse">
<stop stop-color="#00A0FF"/>
<stop offset="0.00657" stop-color="#00A1FF"/>
<stop offset="0.2601" stop-color="#00BEFF"/>
<stop offset="0.5122" stop-color="#00D2FF"/>
<stop offset="0.7604" stop-color="#00DFFF"/>
<stop offset="1" stop-color="#00E3FF"/>
</linearGradient>
<linearGradient id="paint1_linear_1_357" x1="57.2094" y1="37.9944" x2="19.4703" y2="37.9944" gradientUnits="userSpaceOnUse">
<stop stop-color="#FFE000"/>
<stop offset="0.4087" stop-color="#FFBD00"/>
<stop offset="0.7754" stop-color="#FFA500"/>
<stop offset="1" stop-color="#FF9C00"/>
</linearGradient>
<linearGradient id="paint2_linear_1_357" x1="43.1601" y1="41.5671" x2="18.4162" y2="83.3315" gradientUnits="userSpaceOnUse">
<stop stop-color="#FF3A44"/>
<stop offset="1" stop-color="#C31162"/>
</linearGradient>
<linearGradient id="paint3_linear_1_357" x1="15.8163" y1="7.16709" x2="26.8556" y2="25.8197" gradientUnits="userSpaceOnUse">
<stop stop-color="#32A071"/>
<stop offset="0.0685" stop-color="#2DA771"/>
<stop offset="0.4762" stop-color="#15CF74"/>
<stop offset="0.8009" stop-color="#06E775"/>
<stop offset="1" stop-color="#00F076"/>
</linearGradient>
</defs>
</svg>
