<svg width="70" height="70" viewBox="0 0 70 70" fill="none" xmlns="http://www.w3.org/2000/svg">
<path d="M0 15.4C0 6.89482 6.89481 0 15.4 0H54.6C63.1052 0 70 6.89481 70 15.4V54.6C70 63.1052 63.1052 70 54.6 70H15.4C6.89482 70 0 63.1052 0 54.6V15.4Z" fill="url(#paint0_linear_1_282)"/>
<path d="M59.4994 34.8249C59.4994 48.4525 48.452 59.4999 34.8244 59.4999C21.1968 59.4999 10.1494 48.4525 10.1494 34.8249C10.1494 21.1973 21.1968 10.1499 34.8244 10.1499C48.452 10.1499 59.4994 21.1973 59.4994 34.8249ZM13.9459 34.8249C13.9459 46.3558 23.2935 55.7034 34.8244 55.7034C46.3553 55.7034 55.7029 46.3558 55.7029 34.8249C55.7029 23.294 46.3553 13.9464 34.8244 13.9464C23.2935 13.9464 13.9459 23.294 13.9459 34.8249Z" fill="url(#paint1_linear_1_282)" fill-opacity="0.33"/>
<path d="M50.05 33.95C50.05 42.4552 43.1552 49.35 34.65 49.35C26.1448 49.35 19.25 42.4552 19.25 33.95C19.25 25.4449 26.1448 18.55 34.65 18.55C43.1552 18.55 50.05 25.4449 50.05 33.95ZM23.0407 33.95C23.0407 40.3617 28.2384 45.5594 34.65 45.5594C41.0616 45.5594 46.2593 40.3617 46.2593 33.95C46.2593 27.5384 41.0616 22.3407 34.65 22.3407C28.2384 22.3407 23.0407 27.5384 23.0407 33.95Z" fill="url(#paint2_linear_1_282)"/>
<path fill-rule="evenodd" clip-rule="evenodd" d="M23.2997 20.0138C22.3608 19.6383 21.2885 19.8584 20.5735 20.5734C19.8585 21.2884 19.6384 22.3607 20.0139 23.2996L30.1251 48.5774C30.4946 49.5016 31.3723 50.1229 32.367 50.1641C33.3614 50.2055 34.2878 49.6593 34.733 48.769L38.22 41.7949L45.8511 49.426C46.8385 50.4131 48.4388 50.4131 49.4262 49.426C50.4132 48.4389 50.4132 46.8383 49.4262 45.8512L41.7948 38.2198L48.7692 34.7328C49.6595 34.2876 50.2057 33.3614 50.1643 32.3668C50.1228 31.3723 49.5017 30.4947 48.5773 30.1249L23.2997 20.0138Z" fill="white"/>
<defs>
<linearGradient id="paint0_linear_1_282" x1="35" y1="0" x2="35" y2="70" gradientUnits="userSpaceOnUse">
<stop stop-color="#E97DFF"/>
<stop offset="1" stop-color="#9E0AFA"/>
</linearGradient>
<linearGradient id="paint1_linear_1_282" x1="34.8244" y1="10.1499" x2="34.8244" y2="59.4999" gradientUnits="userSpaceOnUse">
<stop stop-color="#F4B9FF"/>
<stop offset="1" stop-color="#C16BEF" stop-opacity="0.19"/>
</linearGradient>
<linearGradient id="paint2_linear_1_282" x1="34.65" y1="18.55" x2="34.65" y2="49.35" gradientUnits="userSpaceOnUse">
<stop stop-color="#E584FF"/>
<stop offset="1" stop-color="#B654E7" stop-opacity="0.26"/>
</linearGradient>
</defs>
</svg>
