<svg width="70" height="70" viewBox="0 0 70 70" fill="none" xmlns="http://www.w3.org/2000/svg">
<path d="M0 15.4C0 6.89482 6.89481 0 15.4 0H54.6C63.1052 0 70 6.89481 70 15.4V54.6C70 63.1052 63.1052 70 54.6 70H15.4C6.89482 70 0 63.1052 0 54.6V15.4Z" fill="url(#paint0_linear_1_277)"/>
<path d="M27.7935 40.833C27.7935 41.1108 27.9382 41.2497 28.2276 41.2497H47.8809C48.8704 41.2497 49.6725 42.0518 49.6725 43.0413C49.6725 44.0308 48.8704 44.833 47.8809 44.833H27.4462C26.4622 44.833 25.594 44.4719 24.8415 43.7497C24.147 43.0275 23.7997 42.1941 23.7997 41.2497C23.7997 40.6941 23.9444 40.1386 24.2338 39.583L26.7516 35.1663L20.7008 22.9476C20.3122 22.1629 19.5123 21.6663 18.6365 21.6663H18.083C17.1165 21.6663 16.333 20.8828 16.333 19.9163C16.333 18.9498 17.1165 18.1663 18.083 18.1663H20.674C21.7377 18.1663 22.7099 18.7689 23.1807 19.7227C24.0816 21.5482 24.9825 23.3905 25.8834 25.2497C26.1728 25.7497 26.8384 27.083 27.8803 29.2497C28.9222 31.3608 29.7325 32.9997 30.3113 34.1663H43.3346C46.384 28.8589 48.4623 25.2237 49.5696 23.2607C50.0624 22.3871 51.1768 22.0601 52.0575 22.5399C52.9403 23.0208 53.2551 24.1336 52.7551 25.0057L46.547 35.833C45.8524 37.0552 44.7816 37.6663 43.3346 37.6663H29.5299L27.8803 40.583L27.7935 40.833ZM43.4214 47.6663C44.1738 46.9441 45.042 46.583 46.026 46.583C47.01 46.583 47.8493 46.9441 48.5439 47.6663C49.2963 48.3886 49.6725 49.2219 49.6725 50.1663C49.6725 51.1108 49.2963 51.9441 48.5439 52.6663C47.8493 53.333 47.01 53.6663 46.026 53.6663C45.042 53.6663 44.1738 53.333 43.4214 52.6663C42.6689 51.9441 42.2927 51.1108 42.2927 50.1663C42.2927 49.2219 42.6689 48.3886 43.4214 47.6663ZM24.8415 47.6663C25.594 46.9441 26.4622 46.583 27.4462 46.583C28.4302 46.583 29.2984 46.9441 30.0508 47.6663C30.8033 48.3886 31.1795 49.2219 31.1795 50.1663C31.1795 51.1108 30.8033 51.9441 30.0508 52.6663C29.2984 53.333 28.4302 53.6663 27.4462 53.6663C26.4622 53.6663 25.594 53.333 24.8415 52.6663C24.147 51.9441 23.7997 51.1108 23.7997 50.1663C23.7997 49.2219 24.147 48.3886 24.8415 47.6663ZM36.7361 30.583C35.7292 30.583 34.9129 29.7667 34.9129 28.7598V25.2497H31.1479C30.1584 25.2497 29.3563 24.4475 29.3563 23.458C29.3563 22.4685 30.1584 21.6663 31.1479 21.6663H34.9129V18.1563C34.9129 17.1493 35.7292 16.333 36.7361 16.333C37.7431 16.333 38.5594 17.1493 38.5594 18.1563V21.6663H42.3243C43.3138 21.6663 44.116 22.4685 44.116 23.458C44.116 24.4475 43.3138 25.2497 42.3243 25.2497H38.5594V28.7597C38.5594 29.7667 37.7431 30.583 36.7361 30.583Z" fill="white"/>
<defs>
<linearGradient id="paint0_linear_1_277" x1="35" y1="0" x2="35" y2="70" gradientUnits="userSpaceOnUse">
<stop stop-color="#FFBF29"/>
<stop offset="1" stop-color="#F36701"/>
</linearGradient>
</defs>
</svg>
