<svg width="76" height="76" viewBox="0 0 76 76" fill="none" xmlns="http://www.w3.org/2000/svg">
<rect x="0.5" y="0.5" width="75" height="75" rx="15.5" fill="white" stroke="#E4E4E7"/>
<path d="M22.4444 26.8889C24.899 26.8889 26.8889 24.899 26.8889 22.4444C26.8889 19.9898 24.899 18 22.4444 18C19.9898 18 18 19.9898 18 22.4444C18 24.899 19.9898 26.8889 22.4444 26.8889Z" fill="#E4E4E7"/>
<path d="M22.4444 42.4444C24.899 42.4444 26.8889 40.4546 26.8889 38C26.8889 35.5454 24.899 33.5556 22.4444 33.5556C19.9898 33.5556 18 35.5454 18 38C18 40.4546 19.9898 42.4444 22.4444 42.4444Z" fill="#E4E4E7"/>
<path d="M22.4444 58C24.899 58 26.8889 56.0102 26.8889 53.5556C26.8889 51.101 24.899 49.1111 22.4444 49.1111C19.9898 49.1111 18 51.101 18 53.5556C18 56.0102 19.9898 58 22.4444 58Z" fill="#E4E4E7"/>
<path d="M38 26.8889C40.4546 26.8889 42.4444 24.899 42.4444 22.4444C42.4444 19.9898 40.4546 18 38 18C35.5454 18 33.5556 19.9898 33.5556 22.4444C33.5556 24.899 35.5454 26.8889 38 26.8889Z" fill="#E4E4E7"/>
<path d="M38 42.4444C40.4546 42.4444 42.4444 40.4546 42.4444 38C42.4444 35.5454 40.4546 33.5556 38 33.5556C35.5454 33.5556 33.5556 35.5454 33.5556 38C33.5556 40.4546 35.5454 42.4444 38 42.4444Z" fill="#E4E4E7"/>
<path d="M38 58C40.4546 58 42.4444 56.0102 42.4444 53.5556C42.4444 51.101 40.4546 49.1111 38 49.1111C35.5454 49.1111 33.5556 51.101 33.5556 53.5556C33.5556 56.0102 35.5454 58 38 58Z" fill="#E4E4E7"/>
<path d="M53.5556 26.8889C56.0102 26.8889 58 24.899 58 22.4444C58 19.9898 56.0102 18 53.5556 18C51.101 18 49.1111 19.9898 49.1111 22.4444C49.1111 24.899 51.101 26.8889 53.5556 26.8889Z" fill="#E4E4E7"/>
<path d="M53.5556 42.4444C56.0102 42.4444 58 40.4546 58 38C58 35.5454 56.0102 33.5556 53.5556 33.5556C51.101 33.5556 49.1111 35.5454 49.1111 38C49.1111 40.4546 51.101 42.4444 53.5556 42.4444Z" fill="#E4E4E7"/>
<path d="M53.5556 58C56.0102 58 58 56.0102 58 53.5556C58 51.101 56.0102 49.1111 53.5556 49.1111C51.101 49.1111 49.1111 51.101 49.1111 53.5556C49.1111 56.0102 51.101 58 53.5556 58Z" fill="#E4E4E7"/>
</svg>
