<svg width="70" height="70" viewBox="0 0 70 70" fill="none" xmlns="http://www.w3.org/2000/svg">
<path d="M15.3262 69.5L15.3254 69.5C7.13949 69.5132 0.5 62.8731 0.5 54.6845V15.3292C0.5 7.14067 7.13952 0.5 15.3262 0.5H54.6602C62.8608 0.5 69.5 7.14096 69.5 15.3292V54.6708C69.5 62.8593 62.8605 69.5 54.6738 69.5L15.3262 69.5Z" fill="white" stroke="#E4E4E7"/>
<path d="M39.0429 17.3223C36.3914 17.3276 33.7892 18.0403 31.5034 19.3871C29.2176 20.7339 27.3306 22.6662 26.0361 24.9857C24.922 24.4419 23.6993 24.1584 22.46 24.1567C20.5177 24.1618 18.6403 24.8583 17.1627 26.122C15.6851 27.3858 14.7034 29.1345 14.3927 31.0564C12.341 31.9175 10.5889 33.3672 9.35667 35.2234C8.12441 37.0796 7.46692 39.2594 7.4668 41.489C7.46969 44.4879 8.66058 47.3629 10.7776 49.4818C12.8947 51.6008 15.7646 52.7904 18.7564 52.7889C19.2298 52.7846 19.7025 52.7505 20.1717 52.6867H51.5406C51.7053 52.6986 51.8703 52.7066 52.0354 52.7107C52.1928 52.7062 52.35 52.6982 52.507 52.6867H53.2582V52.6307C55.8123 52.3279 58.1673 51.0919 59.8769 49.1569C61.5864 47.222 62.5317 44.7226 62.5335 42.1325V42.1122C62.5275 39.6523 61.6706 37.2714 60.11 35.3792C58.5495 33.4869 56.3829 32.2015 53.9831 31.7442C53.8406 27.869 52.2038 24.2003 49.4172 21.5104C46.6306 18.8204 42.9115 17.3191 39.0429 17.3223V17.3223Z" fill="url(#paint0_linear_1_373)"/>
<defs>
<linearGradient id="paint0_linear_1_373" x1="62.7007" y1="42.1612" x2="7.44641" y2="41.4008" gradientUnits="userSpaceOnUse">
<stop stop-color="#0C83FF"/>
<stop offset="1" stop-color="#8BDFFF"/>
</linearGradient>
</defs>
</svg>
