<svg width="70" height="71" viewBox="0 0 70 71" fill="none" xmlns="http://www.w3.org/2000/svg">
<path d="M48.0296 23.2881C48.0023 23.087 47.8288 22.9758 47.6853 22.9636C47.5422 22.9514 44.512 22.7235 44.512 22.7235C44.512 22.7235 42.4076 20.6037 42.1767 20.3691C41.9455 20.1346 41.4942 20.2059 41.3191 20.2583C41.2931 20.266 40.8592 20.4019 40.1413 20.6272C39.4382 18.5748 38.1977 16.6886 36.015 16.6886C35.9548 16.6886 35.8928 16.6912 35.8307 16.6947C35.21 15.8618 34.441 15.5 33.7769 15.5C28.6926 15.5 26.2636 21.9488 25.5019 25.2261C23.5264 25.8472 22.1228 26.2887 21.9435 26.3459C20.8408 26.6968 20.8059 26.7321 20.6612 27.7864C20.5519 28.5846 17.6665 51.2256 17.6665 51.2256L40.1504 55.5L52.3332 52.8259C52.3332 52.8259 48.0565 23.4893 48.0296 23.2881ZM38.8985 21.0173C38.3339 21.1946 37.6919 21.3961 36.9961 21.6146C36.9968 21.4787 36.9974 21.3447 36.9974 21.1985C36.9974 19.9228 36.8229 18.8958 36.5429 18.0816C37.6675 18.2249 38.4165 19.5231 38.8985 21.0173ZM35.1479 18.3345C35.4605 19.1294 35.6638 20.2702 35.6638 21.8097C35.6638 21.8884 35.6632 21.9604 35.6625 22.0333C34.4252 22.4221 33.0808 22.8444 31.7333 23.2679C32.4899 20.3052 33.908 18.8743 35.1479 18.3345ZM33.6372 16.8837C33.8567 16.8837 34.0778 16.9592 34.2893 17.107C32.6599 17.8849 30.9133 19.8444 30.1757 23.7573C29.0977 24.0959 28.0441 24.4269 27.0699 24.7331C27.9338 21.7486 29.9854 16.8837 33.6372 16.8837Z" fill="#95BF46"/>
<path d="M47.6855 22.9633C47.5423 22.9511 44.5121 22.7233 44.5121 22.7233C44.5121 22.7233 42.4077 20.6034 42.1768 20.3689C42.0904 20.2815 41.9738 20.2368 41.8519 20.2175L40.1519 55.4994L52.3333 52.8256C52.3333 52.8256 48.0566 23.489 48.0297 23.2879C48.0025 23.0867 47.8289 22.9755 47.6855 22.9633Z" fill="#5E8E3E"/>
<path d="M36.0152 29.7934L34.5131 34.3271C34.5131 34.3271 33.1969 33.6144 31.5837 33.6144C29.2186 33.6144 29.0995 35.1204 29.0995 35.4999C29.0995 37.5706 34.4194 38.364 34.4194 43.2141C34.4194 47.03 32.034 49.4872 28.8176 49.4872C24.958 49.4872 22.9844 47.0499 22.9844 47.0499L24.0178 43.5856C24.0178 43.5856 26.0465 45.3529 27.7586 45.3529C28.8772 45.3529 29.3323 44.4593 29.3323 43.8064C29.3323 41.1052 24.9679 40.9847 24.9679 36.5465C24.9679 32.811 27.6104 29.196 32.9445 29.196C34.9999 29.196 36.0152 29.7934 36.0152 29.7934Z" fill="white"/>
<rect x="0.5" y="1" width="69" height="69" rx="7.5" stroke="#E4E4E7"/>
</svg>
