<svg width="70" height="70" viewBox="0 0 70 70" fill="none" xmlns="http://www.w3.org/2000/svg">
<path d="M0 15.4C0 6.89482 6.89481 0 15.4 0H54.6C63.1052 0 70 6.89481 70 15.4V54.6C70 63.1052 63.1052 70 54.6 70H15.4C6.89482 70 0 63.1052 0 54.6V15.4Z" fill="url(#paint0_linear_1_2672)"/>
<path d="M34.1586 12.046H35.8417V57.9538H34.1586V12.046Z" fill="white"/>
<path d="M11.8581 33.7479H58.1422V35.4173H11.8581V33.7479Z" fill="white"/>
<path d="M60.6668 34.9999C60.6668 49.1752 49.1755 60.6666 35.0002 60.6666C20.8249 60.6666 9.3335 49.1752 9.3335 34.9999C9.3335 20.8246 20.8249 9.33325 35.0002 9.33325C49.1755 9.33325 60.6668 20.8246 60.6668 34.9999ZM12.2644 34.9999C12.2644 47.5565 22.4436 57.7357 35.0002 57.7357C47.5568 57.7357 57.7359 47.5565 57.7359 34.9999C57.7359 22.4433 47.5568 12.2642 35.0002 12.2642C22.4436 12.2642 12.2644 22.4433 12.2644 34.9999Z" fill="white"/>
<path d="M17.9592 17.2628C17.9592 17.2628 25.533 23.6273 35.0002 23.6273C44.4674 23.6273 51.6204 17.2628 51.6204 17.2628V18.9322C51.6204 18.9322 44.4674 25.2266 35.0002 25.2967C25.533 25.3667 17.9592 18.9322 17.9592 18.9322V17.2628Z" fill="white"/>
<path d="M17.9592 52.5284C17.9592 52.5284 25.533 46.1643 35.0002 46.1643C44.4674 46.1643 51.6204 52.5284 51.6204 52.5284V50.8591C51.6204 50.8591 44.4674 44.5652 35.0002 44.4951C25.533 44.425 17.9592 50.8591 17.9592 50.8591V52.5284Z" fill="white"/>
<path d="M35.0002 60.2492C35.0002 60.2492 23.6395 55.2411 23.6395 34.6869C23.6395 14.1327 35.0002 9.7506 35.0002 9.7506H33.2954C33.2954 9.7506 22.0689 14.237 21.9564 34.7104C21.844 55.1837 33.2954 60.2492 33.2954 60.2492H35.0002Z" fill="white"/>
<path d="M35.0002 60.2492C35.0002 60.2492 46.3601 55.2411 46.3601 34.6869C46.3601 14.1327 35.0002 9.7506 35.0002 9.7506H36.7048C36.7048 9.7506 47.9306 14.237 48.0431 34.7104C48.1555 55.1837 36.7048 60.2492 36.7048 60.2492H35.0002Z" fill="white"/>
<defs>
<linearGradient id="paint0_linear_1_2672" x1="35" y1="0" x2="35" y2="70" gradientUnits="userSpaceOnUse">
<stop stop-color="#00BDFF"/>
<stop offset="1" stop-color="#0D7EFF"/>
</linearGradient>
</defs>
</svg>
